<svg viewBox="229.86186186186185 229.632 372.2762762762763 364.416" xmlns="http://www.w3.org/2000/svg" style="max-height: 500px" width="372.2762762762763" height="364.416"><g id="others"><path stroke-width="1" fill="#F2EEE1" stroke="#F2EEE1" d="M 199.863,605.437 C 200.271,605.029 201.511,605.009 204.339,605.365 C 204.339,605.365 208.250,605.859 208.250,605.859 C 208.250,605.859 203.775,605.929 203.775,605.929 C 200.456,605.982 199.446,605.855 199.863,605.437" id="83"/>
  <path stroke-width="1" fill="#1F431F" stroke="#1F431F" d="M 553.500,473.034 C 553.500,472.777 554.175,472.087 555,471.500 C 556.771,470.239 557.002,470.854 555.343,472.413 C 554.102,473.579 553.500,473.781 553.500,473.034" id="74"/>
  <path stroke-width="1" fill="#BD753B" stroke="#BD753B" d="M 623.353,674.862 C 622.876,629.509 622.874,629.860 623.718,628.742 C 624.387,627.857 624.470,631.734 624.484,664.596 C 624.493,684.861 624.306,701.561 624.069,701.707 C 623.831,701.855 623.510,689.841 623.353,674.862" id="84"/>
  <path stroke-width="1" fill="#F2EEE1" stroke="#F2EEE1" d="M 329.871,819.875 C 329.738,818.981 329.732,798.112 329.859,773.500 C 330.062,734.238 330.183,728.658 330.853,728 C 331.536,727.330 331.557,727.367 331.050,728.356 C 330.638,729.163 330.521,741.970 330.618,775.481 C 330.690,800.792 330.607,821.500 330.432,821.500 C 330.257,821.500 330.005,820.769 329.871,819.875" id="83"/>
  <path stroke-width="1" fill="#F2EEE1" stroke="#F2EEE1" d="M 214.059,698.154 C 214.091,697.382 214.290,696.075 214.500,695.250 C 214.828,693.962 214.890,694.116 214.941,696.346 C 214.974,697.773 214.775,699.080 214.500,699.250 C 214.208,699.431 214.024,698.976 214.059,698.154" id="83"/>
  <path stroke-width="1" fill="#1F431F" stroke="#1F431F" d="M 576.519,351.363 C 575.753,350.974 575.164,350.130 574.958,349.125 C 574.777,348.236 573.755,346.242 572.689,344.693 C 570.332,341.269 562.004,332.853 559.250,331.111 C 558.150,330.416 556.141,328.854 554.786,327.642 C 553.431,326.430 551.519,325.040 550.536,324.553 C 549.553,324.067 547.188,322.830 545.278,321.805 C 542.914,320.536 541.435,320.033 537.407,318 C 536.894,318 535.187,317.539 533.612,316.976 C 531.168,316.102 526.447,314.825 519,313.024 C 518.038,312.791 513.924,312.446 509.860,312.257 C 502.384,311.911 501.853,311.957 490,314.012 C 487.113,314.513 484.562,314.741 484.332,314.518 C 484.101,314.295 484.123,313.983 484.379,313.825 C 485.408,313.189 494.432,311.437 497.974,311.185 C 503.978,310.758 520.150,311.803 525.255,312.947 C 535.326,315.204 547.996,320.861 556.484,326.888 C 563.173,331.639 572.094,340.677 575.348,346 C 579.094,352.126 579.226,352.733 576.519,351.363" id="74"/>
  <path stroke-width="1" fill="#F2EEE1" stroke="#F2EEE1" d="M 464.680,311.483 C 463.344,310.375 460.170,308.406 457.627,307.108 C 453.467,304.986 453.005,304.610 453.002,303.355 C 453,301.426 451.432,298.528 447.536,293.250 C 441.301,284.802 439.892,281.966 437.789,273.635 C 435.459,264.398 434.009,250.803 434.002,238.119 C 434.002,238.119 434,233.488 434,233.488 C 434,233.488 414.875,233.619 414.875,233.619 C 414.875,233.619 395.750,233.750 395.750,233.750 C 395.750,233.750 395.431,245.766 395.431,245.766 C 394.922,264.938 393.781,272.697 390.236,281.104 C 388.716,284.707 384.020,292.983 380.820,297.695 C 379.856,299.115 379.500,300.274 379.500,301.993 C 379.500,304.406 378.474,306.018 376.961,305.984 C 376.425,305.972 376.465,305.805 377.125,305.304 C 377.606,304.938 378.003,304.102 378.006,303.445 C 378.017,301.319 379.416,296.905 380.425,295.813 C 380.966,295.228 382.247,293.288 383.273,291.500 C 384.299,289.712 385.514,287.800 385.974,287.250 C 387.533,285.385 390.507,278.202 391.785,273.215 C 393.257,267.475 393.836,260.779 394.220,245.021 C 394.438,236.105 394.644,233.642 395.226,233.060 C 395.846,232.440 398.865,232.345 415.100,232.436 C 425.628,232.495 434.401,232.702 434.594,232.897 C 434.788,233.091 435.187,238.765 435.480,245.506 C 436.052,258.643 436.778,264.703 438.771,272.978 C 440.439,279.902 442.977,285.089 447.935,291.704 C 451.863,296.946 453.445,299.709 454.168,302.594 C 454.440,303.683 455.385,304.370 459.145,306.212 C 462.158,307.687 464.526,309.260 465.893,310.695 C 467.052,311.911 468,313.039 468,313.202 C 468,313.911 466.947,313.365 464.680,311.483" id="83"/>
  <path stroke-width="1" fill="#1F431F" stroke="#1F431F" d="M 273.551,329.353 C 281.897,321.510 297.434,314.498 312.750,311.663 C 319.845,310.351 333.204,310.478 340.477,311.928 C 346.603,313.149 354.088,315.390 358.401,317.296 C 360.824,318.367 361.004,318.558 360.493,319.512 C 360.186,320.087 359.622,320.676 359.238,320.824 C 358.856,320.971 357.029,323.365 355.179,326.144 C 353.329,328.923 351.728,330.935 351.622,330.616 C 351.456,330.118 352.792,327.893 357.168,321.384 C 358.084,320.022 358.082,320.017 356.793,319.429 C 355.798,318.976 355.199,318.977 354.194,319.435 C 352.560,320.179 351.305,319.346 351.698,317.778 C 351.935,316.833 351.493,316.599 347.106,315.357 C 344.435,314.601 340.675,313.760 338.750,313.488 C 336.825,313.217 334.350,312.777 333.250,312.510 C 330.557,311.856 322.998,311.877 317.085,312.555 C 302.637,314.212 286.507,320.815 275.092,329.747 C 270.371,333.440 269.452,333.207 273.551,329.353" id="74"/>
  <path stroke-width="1" fill="#1F5224" stroke="#1F5224" d="M 508.888,311.133 C 510.064,311.027 511.864,311.029 512.888,311.137 C 513.912,311.244 512.950,311.330 510.750,311.329 C 508.550,311.327 507.712,311.238 508.888,311.133" id="4"/>
  </g><g id="heart shape 2"><path stroke-width="1" fill="#1F5224" stroke="#1F5224" d="M 412.026,586.782 C 411.699,586.387 410.827,585.930 410.091,585.765 C 409.353,585.601 407.218,584.125 405.346,582.484 C 403.474,580.842 401.605,579.500 401.193,579.500 C 400.781,579.500 399.838,578.853 399.097,578.062 C 398.356,577.272 397.188,576.336 396.500,575.981 C 394.584,574.993 388.500,570.024 388.500,569.446 C 388.500,569.164 388.746,568.475 389.046,567.913 C 389.825,566.460 388.926,565.645 387.342,566.367 C 385.914,567.018 385.375,566.717 384.448,564.755 C 383.859,563.510 383.445,563.260 381.958,563.255 C 380.154,563.250 380,563.152 374.076,558.250 C 372.747,557.150 370.589,555.623 369.280,554.857 C 367.269,553.679 366.945,553.285 367.192,552.303 C 367.580,550.755 366.203,549.547 364.118,549.606 C 363.226,549.631 362.104,549.325 361.623,548.926 C 361.143,548.526 358.500,546.290 355.750,543.957 C 353,541.625 349.962,539.116 349,538.383 C 348.038,537.649 345.562,535.488 343.500,533.582 C 339.869,530.225 339.778,530.084 340.625,529.143 C 341.106,528.609 341.500,527.774 341.500,527.288 C 341.500,526.519 341.185,526.449 339.034,526.745 C 336.690,527.067 336.433,526.982 333.803,524.996 C 330.698,522.652 330.019,521.360 331.205,520.050 C 332.124,519.034 332.223,518.197 331.478,517.736 C 330.747,517.285 329.500,518.435 329.500,519.561 C 329.500,520.077 329.289,520.500 329.031,520.500 C 327.837,520.500 317.856,511.075 297.901,491.105 C 283.892,477.085 282.659,475.803 281.702,474.250 C 281.193,473.425 279.714,471.674 278.413,470.358 C 277.113,469.043 274.986,466.723 273.686,465.201 C 271.423,462.551 271.348,462.366 271.911,460.807 C 273.046,457.669 272.114,455.860 268.870,457.461 C 268.471,456.505 266.861,454.378 265.293,452.736 C 262.115,449.409 261.273,447.861 261.948,446.592 C 262.195,446.130 262.476,444.400 262.573,442.750 C 262.716,440.338 262.603,439.750 262,439.750 C 261.520,439.750 261.217,440.291 261.159,441.250 C 261.109,442.075 260.865,443.425 260.618,444.250 C 260.189,445.683 260.017,445.436 256.779,438.750 C 253.857,432.717 250.500,424.404 250.500,423.203 C 250.500,422.995 251.039,423.332 251.697,423.950 C 253.133,425.300 253.568,424.805 253.159,422.284 C 252.804,420.098 251.845,419.533 250.521,420.731 C 249.629,421.538 249.549,421.526 248.991,420.483 C 248.667,419.878 248.073,416.428 247.672,412.817 C 247.269,409.205 246.593,405.178 246.167,403.868 C 245.150,400.732 245.501,384.382 246.729,377.750 C 248.038,370.679 249.903,365.178 251.302,364.262 C 252.112,363.731 252.500,363.005 252.500,362.022 C 252.500,358.084 258.087,347.733 263.759,341.163 C 265.027,339.694 266.825,337.497 267.753,336.280 C 269.261,334.305 269.327,334.091 268.382,334.272 C 267.800,334.385 267.531,334.291 267.786,334.065 C 272.007,330.320 273.073,329.473 271.781,330.889 C 269.512,333.377 271.193,332.798 275.092,329.747 C 286.507,320.815 302.637,314.212 317.085,312.555 C 322.998,311.877 330.557,311.856 333.250,312.510 C 334.350,312.777 336.825,313.217 338.750,313.488 C 340.675,313.760 344.435,314.601 347.106,315.357 C 351.493,316.599 351.935,316.833 351.698,317.778 C 351.333,319.231 352.618,320.240 353.935,319.534 C 355.243,318.834 356.120,318.860 357.146,319.625 C 357.899,320.188 357.663,320.719 354.748,325 C 351.787,329.349 350.744,331.526 351.990,330.756 C 351.008,333.179 348.788,334.772 349.881,335.022 C 349.403,335.697 348.207,337.938 347.222,340 C 342.029,350.877 338.301,368.720 338.367,382.375 C 338.389,386.800 338.214,389.882 337.986,393 C 338.289,393 338.356,394.790 338.161,397.750 C 337.983,400.466 338.042,402.500 338.300,402.500 C 338.547,402.500 338.772,404.548 338.800,407.049 C 338.827,409.551 339.051,411.745 339.300,411.924 C 339.548,412.103 339.752,413.890 339.753,415.895 C 339.755,417.899 339.979,419.700 340.253,419.895 C 340.526,420.091 340.762,421.560 340.777,423.160 C 340.795,425.029 341.044,426.218 341.475,426.485 C 341.861,426.723 342.007,427.262 341.817,427.754 C 341.637,428.224 341.726,430.103 342.015,431.930 C 342.304,433.756 342.770,436.712 343.051,438.500 C 343.332,440.288 343.761,442.762 344.005,444 C 344.249,445.238 344.830,448.331 345.298,450.875 C 345.764,453.419 346.291,455.500 346.466,455.500 C 346.642,455.500 346.786,456.751 346.786,458.279 C 346.786,459.808 347.003,461.214 347.268,461.404 C 347.533,461.594 347.798,463.307 347.858,465.209 C 347.916,467.113 348.142,468.800 348.358,468.959 C 348.574,469.119 348.783,470.909 348.822,472.938 C 348.870,475.438 349.112,476.760 349.572,477.045 C 350.080,477.359 350.233,478.779 350.183,482.732 C 350.142,485.940 350.310,488 350.613,488 C 350.918,488 350.975,488.726 350.762,489.866 C 350.332,492.154 351.416,514.313 352.034,515.875 C 352.870,517.990 354.869,517.347 358.249,513.875 C 363.713,508.262 368.111,501.005 372.264,490.750 C 373.824,486.900 375.397,483.075 375.760,482.250 C 376.123,481.425 376.566,480.243 378.221,479.625 C 378.757,481.408 380.758,488.725 382.470,495.159 C 383.978,500.824 384.901,503.531 389.495,515.750 C 394.036,527.824 395.867,532.100 400.012,540.293 C 405.952,552.038 411.831,560.587 415.161,562.327 C 418.042,563.831 421.257,561.733 425.260,555.740 C 426.358,554.096 427.844,551.962 428.560,551 C 430.046,549.004 432.213,544.842 434.421,539.750 C 435.255,537.825 437.100,533.577 438.521,530.308 C 440.899,524.838 448.500,504.917 448.500,504.154 C 448.500,503.971 449.156,502.007 449.958,499.786 C 450.760,497.567 452.572,491.812 453.983,487 C 455.396,482.188 456.669,477.913 456.814,477.500 C 457.182,476.452 458.207,478.507 460.275,484.435 C 465.506,499.430 471.947,509.493 480.200,515.566 C 483.880,518.273 484,518.074 484,509.279 C 484,505.033 484.202,501.434 484.449,501.281 C 484.695,501.129 485.038,497.909 485.209,494.127 C 485.567,486.243 486.141,480.474 487.483,471.250 C 488.003,467.675 488.307,464.017 488.157,463.120 C 488.005,462.209 488.141,461.183 488.466,460.791 C 488.784,460.407 489.241,459.003 489.481,457.671 C 489.720,456.340 490.422,452.663 491.041,449.500 C 491.660,446.337 492.144,442.405 492.116,440.761 C 492.089,439.117 492.284,437.510 492.551,437.188 C 493.095,436.533 493.754,433.020 495.541,421.250 C 497.335,409.425 497.943,388.605 496.811,377.750 C 495.140,361.730 492.348,350.390 487.788,341.112 C 486.805,339.111 486,337.365 486,337.233 C 486,336.808 479.400,325.332 477.685,322.776 C 476.101,320.413 476.065,320.257 476.887,319.346 C 477.362,318.822 478.819,317.850 480.125,317.188 C 482.406,316.031 483.191,315.035 484.190,314.448 C 484.539,314.738 486.721,314.572 490,314.007 C 501.933,311.952 502.389,311.911 509.860,312.257 C 513.924,312.446 518.038,312.791 519,313.024 C 526.447,314.825 531.168,316.102 533.612,316.976 C 535.187,317.539 536.894,318 540.646,320.231 C 541.435,320.033 542.914,320.536 545.278,321.805 C 547.188,322.830 549.553,324.067 550.536,324.553 C 551.519,325.040 553.431,326.430 554.786,327.642 C 556.141,328.854 558.150,330.416 559.250,331.111 C 562.163,332.954 570.514,341.476 572.925,345.066 C 574.067,346.765 575,348.656 575,349.267 C 575,350.601 575.900,351.434 579.143,354.818 C 580.699,357.724 581.232,359.200 584.169,368.750 C 584.592,370.125 585.165,372.658 585.442,374.379 C 585.719,376.100 586.080,377.724 586.243,377.988 C 586.881,379.022 587.513,387.105 587.513,394.250 C 587.513,401.839 586.576,411.033 585.529,413.714 C 584.942,415.216 583.241,421.231 582.422,424.700 C 582.168,425.772 581.495,427.304 580.927,428.103 C 579.978,429.435 579.820,429.492 579.032,428.779 C 578.558,428.351 578.054,428 577.911,428 C 577.768,428 577.503,430.248 577.323,432.995 C 576.970,438.386 576.341,440.406 573.399,445.610 C 572.355,447.457 571.500,449.274 571.500,449.647 C 571.500,450.021 570.962,450.831 570.306,451.448 C 569.275,452.416 568.386,454.628 568.663,455.539 C 568.847,456.149 556.973,471.140 556.601,470.768 C 556.470,470.637 555.711,470.994 554.913,471.562 C 553.949,472.248 553.554,472.884 553.736,473.456 C 554.038,474.406 552.018,476.615 550.668,476.813 C 549.571,476.974 545.500,481.022 545.500,481.952 C 545.500,482.430 546.128,482.088 547.250,481 C 548.212,480.067 549,479.414 549,479.548 C 549,479.682 547.942,480.795 546.650,482.021 C 545.357,483.247 544.622,483.800 545.016,483.250 C 545.331,482.048 540.902,488.404 540.375,487.339 C 539.756,487.896 538.831,488.500 538.318,488.682 C 537.700,488.901 537.471,489.337 537.639,489.978 C 537.938,491.118 536.384,492.712 534.951,492.735 C 534.412,492.743 533.690,493.312 533.346,494 C 533.002,494.688 532.109,495.543 531.361,495.902 C 530.612,496.262 530,496.841 530,497.190 C 530,497.539 529.444,498.348 528.765,498.986 C 528.087,499.623 527.630,500.306 527.751,500.502 C 528.112,501.087 520.577,508.106 519.982,507.739 C 519.285,507.308 517.391,508.995 517.692,509.779 C 517.817,510.104 516.913,511.356 515.682,512.561 C 514.451,513.764 513.592,514.356 513.775,513.875 C 513.957,513.394 513.893,513 513.631,513 C 512.972,513 511.682,514.541 511.308,515.775 C 511.137,516.338 509.478,518.152 507.623,519.805 C 502.652,524.234 489.750,535.295 485.472,538.795 C 483.425,540.470 479.634,543.599 477.046,545.749 C 474.459,547.899 472.504,549.398 472.701,549.079 C 473.517,547.760 471.228,548.619 469.247,550.375 C 468.084,551.406 465.963,553.150 464.535,554.250 C 463.107,555.350 461.109,556.953 460.094,557.812 C 459.080,558.672 457.368,559.846 456.288,560.421 C 455.209,560.996 453.721,562.093 452.980,562.859 C 452.240,563.624 450.257,565.375 448.576,566.750 C 445.531,569.240 444.712,570.378 446.375,569.807 C 446.856,569.641 446.482,570.170 445.543,570.982 C 443.824,572.470 443,572.548 442,570.943 C 442,571.187 441.210,571.761 440.245,572.219 C 438.224,573.178 436.841,575.005 437.277,576.141 C 437.673,577.170 435.813,578.167 434.356,577.706 C 433.748,577.514 432.956,576.939 432.596,576.428 C 431.235,574.494 429.368,575.885 430.496,577.993 C 431.185,579.280 430.418,580.500 428.919,580.500 C 428.392,580.500 427.104,581.400 426.058,582.500 C 425.011,583.600 423.711,584.500 423.168,584.500 C 421.614,584.500 414.942,586.358 414.342,586.958 C 413.598,587.702 412.736,587.637 412.026,586.782M 379.906,557.367 C 380.105,556.334 378.662,555.638 377.900,556.400 C 377.138,557.162 377.834,558.605 378.868,558.406 C 379.346,558.314 379.813,557.846 379.906,557.367M 369.777,548.957 C 369.962,548.658 369.872,548.172 369.577,547.878 C 368.954,547.254 367.330,548.321 367.785,549.057 C 368.166,549.673 369.372,549.612 369.777,548.957M 470.875,547.625 C 471.149,546.804 469.582,546.218 468.910,546.890 C 468.623,547.178 468.546,547.670 468.740,547.984 C 469.182,548.699 470.596,548.461 470.875,547.625M 320.777,509.457 C 321.293,508.623 320.134,507.666 319.443,508.356 C 318.866,508.933 319.228,510 320,510 C 320.243,510 320.592,509.755 320.777,509.457M 525.269,502.894 C 525.269,502.894 527.750,500.289 527.750,500.289 C 527.750,500.289 525,502.736 525,502.736 C 523.487,504.081 522.156,505.253 522.042,505.341 C 521.927,505.428 522.048,505.500 522.311,505.500 C 522.573,505.500 523.904,504.327 525.269,502.894M 311.495,500.257 C 312.253,499.342 311.810,498 310.750,498 C 309.832,498 309.271,499.182 309.681,500.250 C 310.046,501.203 310.707,501.205 311.495,500.257M 301.375,488.625 C 301.649,487.805 300.082,487.218 299.410,487.890 C 299.123,488.178 299.046,488.670 299.240,488.984 C 299.682,489.699 301.096,489.462 301.375,488.625M 291.482,480.272 C 292.169,479.444 291.779,478.500 290.750,478.500 C 289.851,478.500 289.338,479.357 289.690,480.274 C 290.045,481.200 290.713,481.199 291.482,480.272M 282.982,470.272 C 283.669,469.444 283.279,468.500 282.250,468.500 C 281.351,468.500 280.838,469.357 281.190,470.274 C 281.545,471.200 282.213,471.199 282.982,470.272M 252.250,368 C 252.250,366.630 251.137,366.062 250.697,367.209 C 250.283,368.287 250.859,369.630 251.625,369.375 C 251.969,369.260 252.250,368.642 252.250,368M 262.750,349 C 262.750,348.358 262.469,347.740 262.125,347.625 C 261.359,347.370 260.783,348.713 261.197,349.791 C 261.637,350.938 262.750,350.370 262.750,349M 272.832,339.216 C 273.248,338.130 272.191,337.109 271.433,337.866 C 270.793,338.507 271.190,340 272,340 C 272.293,340 272.666,339.647 272.832,339.216M 302.407,320.373 C 302.499,319.892 302.202,319.354 301.748,319.180 C 300.755,318.799 299.233,320.163 299.738,320.981 C 300.264,321.832 302.214,321.389 302.407,320.373" id="4"/>
  <path stroke-width="1" fill="#1A441D" stroke="#1A441D" d="M 409.250,587.606 C 407.325,586.303 403.837,583.793 401.500,582.031 C 399.163,580.269 396.278,578.134 395.090,577.288 C 393.902,576.442 391.683,574.689 390.158,573.393 C 388.632,572.096 382.854,567.551 377.317,563.291 C 360.502,550.355 335.915,529.734 321.529,516.500 C 310.252,506.125 282.820,478.401 276.447,470.937 C 270.150,463.562 262.455,452.887 258.497,446.034 C 254.625,439.333 249.280,426.923 247.067,419.500 C 244.525,410.970 243.320,394.486 244.474,384.033 C 245.699,372.939 248.614,363.137 253.578,353.421 C 257.740,345.275 265.887,334.708 268.346,334.266 C 269.351,334.086 269.302,334.251 267.753,336.280 C 266.825,337.497 265.027,339.694 263.759,341.163 C 258.087,347.733 252.500,358.084 252.500,362.022 C 252.500,363.005 252.112,363.731 251.302,364.262 C 249.903,365.178 248.038,370.679 246.729,377.750 C 245.501,384.382 245.150,400.732 246.167,403.868 C 246.593,405.178 247.269,409.205 247.672,412.817 C 248.073,416.428 248.667,419.878 248.991,420.483 C 249.549,421.526 249.629,421.538 250.521,420.731 C 251.845,419.533 252.804,420.098 253.159,422.284 C 253.568,424.805 253.133,425.300 251.697,423.950 C 251.039,423.332 250.500,422.995 250.500,423.203 C 250.500,424.404 253.857,432.717 256.779,438.750 C 260.017,445.436 260.189,445.683 260.618,444.250 C 260.865,443.425 261.109,442.075 261.159,441.250 C 261.217,440.291 261.520,439.750 262,439.750 C 262.603,439.750 262.716,440.338 262.573,442.750 C 262.476,444.400 262.195,446.130 261.948,446.592 C 261.273,447.861 262.115,449.409 265.293,452.736 C 266.861,454.378 268.471,456.505 270.479,458.027 C 272.114,455.860 273.046,457.669 271.911,460.807 C 271.348,462.366 271.423,462.551 273.686,465.201 C 274.986,466.723 277.113,469.043 278.413,470.358 C 279.714,471.674 281.193,473.425 281.702,474.250 C 282.659,475.803 283.892,477.085 297.901,491.105 C 317.856,511.075 327.837,520.500 329.031,520.500 C 329.289,520.500 329.500,520.077 329.500,519.561 C 329.500,518.435 330.747,517.285 331.478,517.736 C 332.223,518.197 332.124,519.034 331.205,520.050 C 330.019,521.360 330.698,522.652 333.803,524.996 C 336.433,526.982 336.690,527.067 339.034,526.745 C 341.185,526.449 341.500,526.519 341.500,527.288 C 341.500,527.774 341.106,528.609 340.625,529.143 C 339.778,530.084 339.869,530.225 343.500,533.582 C 345.562,535.488 348.038,537.649 349,538.383 C 349.962,539.116 353,541.625 355.750,543.957 C 358.500,546.290 361.143,548.526 361.623,548.926 C 362.104,549.325 363.226,549.631 364.118,549.606 C 366.203,549.547 367.580,550.755 367.192,552.303 C 366.945,553.285 367.269,553.679 369.280,554.857 C 370.589,555.623 372.747,557.150 374.076,558.250 C 380,563.152 380.154,563.250 381.958,563.255 C 383.445,563.260 383.859,563.510 384.448,564.755 C 385.375,566.717 385.914,567.018 387.342,566.367 C 388.926,565.645 389.825,566.460 389.046,567.913 C 388.746,568.475 388.500,569.164 388.500,569.446 C 388.500,570.024 394.584,574.993 396.500,575.981 C 397.188,576.336 398.356,577.272 399.097,578.062 C 399.838,578.853 400.781,579.500 401.193,579.500 C 401.605,579.500 403.474,580.840 405.346,582.476 C 407.218,584.114 409.312,585.593 410,585.765 C 410.688,585.937 411.644,586.433 412.126,586.867 C 412.925,587.587 413.145,587.583 414.626,586.822 C 416.385,585.918 421.610,584.500 423.183,584.500 C 423.717,584.500 425.011,583.600 426.058,582.500 C 427.104,581.400 428.392,580.500 428.919,580.500 C 430.418,580.500 431.185,579.280 430.496,577.993 C 429.378,575.905 431.209,574.505 432.596,576.386 C 432.956,576.874 433.783,577.502 434.434,577.783 C 435.545,578.260 435.209,578.587 429.048,583.021 C 419.642,589.790 419.271,589.984 415.750,589.980 C 413,589.977 412.458,589.779 409.250,587.606" id="25"/>
  <path stroke-width="1" fill="#374D21" stroke="#374D21" d="M 414.704,562.074 C 411.397,560.013 405.331,550.981 399.709,539.750 C 395.842,532.024 393.891,527.441 389.495,515.750 C 384.901,503.531 383.978,500.824 382.470,495.159 C 380.758,488.725 378.757,481.408 376.744,479.625 C 376.566,480.243 376.123,481.425 375.760,482.250 C 375.397,483.075 373.824,486.900 372.264,490.750 C 368.111,501.005 363.713,508.262 358.249,513.875 C 354.869,517.347 352.868,517.991 352.037,515.875 C 351.643,514.871 350.456,495.933 350.510,491.500 C 350.526,490.134 350.636,489.931 351.012,490.576 C 351.277,491.030 351.623,496.430 351.779,502.576 C 351.935,508.722 352.166,514.256 352.291,514.875 C 353.241,519.568 362.851,509.158 368.791,497 C 369.933,494.663 372.298,489.094 374.046,484.625 C 375.795,480.156 377.365,476.500 377.534,476.500 C 377.704,476.500 378.327,478.019 378.919,479.875 C 380.158,483.762 382.748,492.317 383.575,495.250 C 385.305,501.390 392.647,522.148 394.909,527.295 C 397.298,532.732 402.218,542.835 404.459,546.904 C 408.851,554.879 414.750,562 416.962,562 C 419.593,562 425.680,554.826 430.536,546 C 436.816,534.589 448.139,504.758 453.501,485.500 C 454.382,482.337 455.361,478.852 455.676,477.755 C 456.738,474.061 457.545,474.884 460.436,482.611 C 464.148,492.532 466.487,497.384 470.373,503.222 C 475.031,510.221 482.430,517.404 483.687,516.146 C 483.859,515.974 484,516.096 484,516.417 C 484,517.444 482.209,517.043 480.200,515.566 C 476.860,513.108 474.265,510.407 471.024,506.014 C 466.502,499.884 463.706,494.271 460.275,484.435 C 458.207,478.507 457.182,476.452 456.814,477.500 C 456.669,477.913 455.396,482.188 453.983,487 C 452.572,491.812 450.760,497.567 449.958,499.786 C 449.156,502.007 448.500,503.971 448.500,504.154 C 448.500,504.917 440.899,524.838 438.521,530.308 C 437.100,533.577 435.255,537.825 434.421,539.750 C 432.201,544.870 430.055,548.979 428.416,551.250 C 427.623,552.350 425.856,554.818 424.490,556.735 C 420.427,562.437 417.684,563.933 414.704,562.074" id="69"/>
  <path stroke-width="1" fill="#1F431F" stroke="#1F431F" d="M 271.168,339.216 C 270.752,338.130 271.809,337.109 272.567,337.866 C 273.207,338.507 272.810,340 272,340 C 271.707,340 271.334,339.647 271.168,339.216" id="74"/>
  <path stroke-width="1" fill="#1F431F" stroke="#1F431F" d="M 250.697,368.791 C 250.283,367.713 250.859,366.370 251.625,366.625 C 251.969,366.740 252.250,367.358 252.250,368 C 252.250,369.370 251.137,369.938 250.697,368.791" id="74"/>
  <path stroke-width="1" fill="#374D21" stroke="#374D21" d="M 345.298,450.875 C 344.830,448.331 344.249,445.238 344.005,444 C 343.761,442.762 343.332,440.288 343.051,438.500 C 342.770,436.712 342.296,433.705 341.995,431.817 C 341.696,429.928 341.569,428.264 341.714,428.120 C 342.132,427.702 342.402,428.840 343.500,435.632 C 344.067,439.143 345.084,444.993 345.761,448.632 C 346.438,452.272 346.993,455.306 346.995,455.375 C 346.998,455.444 346.808,455.500 346.574,455.500 C 346.339,455.500 345.764,453.419 345.298,450.875" id="69"/>
  <path stroke-width="1" fill="#1F431F" stroke="#1F431F" d="M 437.241,575.986 C 436.721,575.144 438.329,573.128 440.245,572.219 C 441.210,571.761 442,571.187 442,570.943 C 442,570.086 442.887,570.512 443.143,571.493 C 443.340,572.246 442.841,572.891 441.077,574.163 C 437.887,576.463 437.616,576.592 437.241,575.986" id="74"/>
  <path stroke-width="1" fill="#1F431F" stroke="#1F431F" d="M 261.197,349.791 C 260.783,348.713 261.359,347.370 262.125,347.625 C 262.469,347.740 262.750,348.358 262.750,349 C 262.750,350.370 261.637,350.938 261.197,349.791" id="74"/>
  <path stroke-width="1" fill="#1F431F" stroke="#1F431F" d="M 517.500,509.577 C 517.500,508.914 519.469,507.302 519.833,507.666 C 520.014,507.846 519.752,508.445 519.253,508.997 C 518.309,510.039 517.500,510.308 517.500,509.577" id="74"/>
  <path stroke-width="1" fill="#374D21" stroke="#374D21" d="M 488.166,460.250 C 488.318,459.700 488.582,458.125 488.753,456.750 C 488.925,455.375 489.486,452.225 490,449.750 C 490.514,447.275 491.077,444.181 491.248,442.875 C 491.421,441.569 491.802,440.500 492.096,440.500 C 492.673,440.500 492.678,440.459 490.990,449.500 C 490.399,452.663 489.717,456.356 489.475,457.708 C 489.233,459.060 488.776,460.410 488.461,460.708 C 488.038,461.108 487.960,460.989 488.166,460.250" id="69"/>
  <path stroke-width="1" fill="#5D4725" stroke="#5D4725" d="M 341.303,360 C 341.784,355.664 342.088,354.301 343.748,349.046 C 345.308,344.111 348.736,336 349.263,336 C 349.391,336 349.026,337.181 348.453,338.625 C 345.781,345.349 344.024,350.638 343.012,355 C 341.560,361.255 340.973,362.971 341.303,360" id="76"/>
  <path stroke-width="1" fill="#374D21" stroke="#374D21" d="M 346.812,459.938 C 346.361,457.682 346.416,456.713 346.961,457.275 C 347.654,457.990 348.200,461.500 347.618,461.500 C 347.347,461.500 346.985,460.797 346.812,459.938" id="69"/>
  <path stroke-width="1" fill="#374D21" stroke="#374D21" d="M 337.500,391.221 C 337.500,390.161 337.702,389.566 338,389.750 C 338.275,389.920 338.500,390.721 338.500,391.529 C 338.500,392.339 338.275,393 338,393 C 337.725,393 337.500,392.199 337.500,391.221" id="69"/>
  <path stroke-width="1" fill="#374D21" stroke="#374D21" d="M 339.812,418.438 C 339.640,417.578 339.507,416.060 339.515,415.062 C 339.536,412.562 340.274,414 340.702,417.375 C 341.060,420.197 340.337,421.060 339.812,418.438" id="69"/>
  <path stroke-width="1" fill="#374D21" stroke="#374D21" d="M 338.824,409.375 C 338.380,405.673 338.418,404.212 338.944,404.775 C 339.582,405.458 340.185,412 339.610,412 C 339.351,412 338.998,410.819 338.824,409.375" id="69"/>
  <path stroke-width="1" fill="#1F431F" stroke="#1F431F" d="M 526.005,501.683 C 528.202,499.584 530,497.572 530,497.211 C 530,496.850 530.617,496.259 531.370,495.897 C 532.125,495.536 533.036,494.624 533.398,493.870 C 533.759,493.116 534.341,492.500 534.690,492.500 C 535.438,492.500 537.218,490.627 537.660,489.375 C 537.830,488.894 538.257,488.497 538.610,488.493 C 539.359,488.486 545.500,482.375 545.500,481.637 C 545.500,480.917 550.504,476.337 550.880,476.714 C 551.236,477.070 548.710,479.721 533.598,494.841 C 527.740,500.704 522.736,505.500 522.479,505.500 C 522.221,505.500 523.808,503.783 526.005,501.683" id="74"/>
  <path stroke-width="1" fill="#374D21" stroke="#374D21" d="M 340.812,424.938 C 340.357,422.661 340.420,421.214 340.949,421.775 C 341.618,422.483 342.177,426.500 341.606,426.500 C 341.341,426.500 340.985,425.797 340.812,424.938" id="69"/>
  <path stroke-width="1" fill="#1A441D" stroke="#1A441D" d="M 281.190,470.274 C 280.838,469.357 281.351,468.500 282.250,468.500 C 283.279,468.500 283.669,469.444 282.982,470.272 C 282.213,471.199 281.545,471.200 281.190,470.274" id="25"/>
  <path stroke-width="1" fill="#1F431F" stroke="#1F431F" d="M 445.510,569.625 C 445.514,569.419 446.894,568.125 448.576,566.750 C 450.257,565.375 452.240,563.624 452.980,562.859 C 453.721,562.093 455.209,560.996 456.288,560.421 C 457.368,559.846 459.080,558.672 460.094,557.812 C 461.109,556.953 463.107,555.350 464.535,554.250 C 465.963,553.150 468.103,551.388 469.291,550.333 C 470.479,549.279 471.840,548.492 472.315,548.583 C 473.128,548.740 473.127,548.802 472.297,549.632 C 470.820,551.109 461.630,558.534 454.680,563.865 C 447.132,569.656 445.483,570.692 445.510,569.625" id="74"/>
  <path stroke-width="1" fill="#1F431F" stroke="#1F431F" d="M 568.712,454.271 C 569.045,453.301 569.809,451.985 570.409,451.346 C 571.009,450.708 571.500,449.912 571.500,449.577 C 571.500,449.243 572.355,447.457 573.399,445.610 C 576.341,440.406 576.970,438.386 577.323,432.995 C 577.503,430.248 577.768,428 577.911,428 C 578.054,428 578.558,428.351 579.032,428.779 C 579.820,429.492 579.978,429.435 580.927,428.103 C 581.495,427.304 582.168,425.772 582.422,424.700 C 583.241,421.231 584.942,415.216 585.529,413.714 C 586.576,411.033 587.513,401.839 587.513,394.250 C 587.513,387.105 586.881,379.022 586.243,377.988 C 586.080,377.724 585.719,376.100 585.442,374.379 C 585.165,372.658 584.592,370.125 584.169,368.750 C 581.261,359.293 580.706,357.748 579.205,354.923 C 578.360,353.333 578.331,353 579.033,353 C 579.734,353 583.088,360.205 584.736,365.250 C 588.380,376.414 589.857,391.457 588.542,404.024 C 587.038,418.387 580.972,435.522 572.142,450.355 C 568.992,455.646 567.753,457.060 568.712,454.271" id="74"/>
  <path stroke-width="1" fill="#374D21" stroke="#374D21" d="M 348.818,474.680 C 348.643,473.404 348.507,471.885 348.515,471.305 C 348.527,470.434 348.610,470.385 348.985,471.026 C 349.692,472.235 350.209,477 349.632,477 C 349.360,477 348.993,475.956 348.818,474.680" id="69"/>
  <path stroke-width="1" fill="#1F431F" stroke="#1F431F" d="M 299.240,488.984 C 299.046,488.670 299.123,488.178 299.410,487.890 C 300.082,487.218 301.649,487.805 301.375,488.625 C 301.096,489.462 299.682,489.699 299.240,488.984" id="74"/>
  <path stroke-width="1" fill="#374D21" stroke="#374D21" d="M 492.190,436.250 C 492.466,434.850 494.092,424.096 495.592,413.750 C 496.025,410.769 496.246,403.681 496.247,392.750 C 496.249,375.118 496.158,374.161 493.176,360.500 C 491.945,354.858 489.468,346.596 488.493,344.882 C 487.740,343.557 487.848,342.752 488.686,343.447 C 489.666,344.260 492.290,352.021 493.692,358.250 C 496.690,371.575 497.676,382.118 497.291,396.750 C 496.986,408.307 496.525,414.764 495.541,421.250 C 493.675,433.544 493.080,436.622 492.459,437.213 C 492.043,437.608 491.973,437.354 492.190,436.250" id="69"/>
  <path stroke-width="1" fill="#1A441D" stroke="#1A441D" d="M 319.223,509.457 C 318.707,508.623 319.866,507.666 320.557,508.356 C 321.134,508.933 320.772,510 320,510 C 319.757,510 319.408,509.755 319.223,509.457" id="25"/>
  <path stroke-width="1" fill="#374D21" stroke="#374D21" d="M 347.995,467.875 C 347.991,467.257 347.850,465.850 347.680,464.750 C 347.472,463.409 347.536,462.915 347.873,463.250 C 348.599,463.971 349.161,469 348.517,469 C 348.233,469 347.998,468.493 347.995,467.875" id="69"/>
  <path stroke-width="1" fill="#1F431F" stroke="#1F431F" d="M 485.377,338.117 C 482.179,331.555 478.278,325.045 475.420,321.498 C 472.736,318.167 472.704,318.252 477.360,316.302 C 482.440,314.175 484.662,314.887 480.125,317.188 C 478.819,317.850 477.362,318.822 476.887,319.346 C 476.065,320.257 476.101,320.413 477.687,322.776 C 480.009,326.235 484.989,335.108 486.899,339.190 C 488.648,342.928 488.672,343.003 488.125,342.992 C 487.919,342.988 486.683,340.794 485.377,338.117" id="74"/>
  <path stroke-width="1" fill="#1F431F" stroke="#1F431F" d="M 367.785,549.057 C 367.330,548.321 368.954,547.254 369.577,547.878 C 369.872,548.172 369.962,548.658 369.777,548.957 C 369.372,549.612 368.166,549.673 367.785,549.057" id="74"/>
  <path stroke-width="1" fill="#1F431F" stroke="#1F431F" d="M 309.681,500.250 C 309.271,499.182 309.832,498 310.750,498 C 311.810,498 312.253,499.342 311.495,500.257 C 310.707,501.205 310.046,501.203 309.681,500.250" id="74"/>
  <path stroke-width="1" fill="#1F431F" stroke="#1F431F" d="M 468.740,547.984 C 468.546,547.670 468.623,547.178 468.910,546.890 C 469.582,546.218 471.149,546.804 470.875,547.625 C 470.596,548.461 469.182,548.699 468.740,547.984" id="74"/>
  <path stroke-width="1" fill="#374D21" stroke="#374D21" d="M 484.019,500.154 C 484.084,495.356 485.801,475.616 486.490,471.750 C 486.735,470.375 487.082,467.930 487.260,466.318 C 487.471,464.420 487.757,463.558 488.072,463.872 C 488.387,464.187 488.202,466.719 487.548,471.054 C 486.168,480.200 485.577,486.019 485.209,494.127 C 485.038,497.909 484.695,501.129 484.449,501.281 C 484.202,501.434 484.009,500.927 484.019,500.154" id="69"/>
  <path stroke-width="1" fill="#1F431F" stroke="#1F431F" d="M 377.682,557.754 C 377.509,557.302 377.607,556.693 377.900,556.400 C 378.662,555.638 380.105,556.334 379.906,557.367 C 379.685,558.519 378.082,558.797 377.682,557.754" id="74"/>
  <path stroke-width="1" fill="#1F431F" stroke="#1F431F" d="M 289.690,480.274 C 289.338,479.357 289.851,478.500 290.750,478.500 C 291.779,478.500 292.169,479.444 291.482,480.272 C 290.713,481.199 290.045,481.200 289.690,480.274" id="74"/>
  <path stroke-width="1" fill="#1F431F" stroke="#1F431F" d="M 511.322,515.625 C 511.656,514.350 513.367,512.700 513.852,513.186 C 514.043,513.376 513.489,514.242 512.622,515.109 C 511.293,516.438 511.089,516.519 511.322,515.625" id="74"/>
  <path stroke-width="1" fill="#374D21" stroke="#374D21" d="M 338,399.221 C 338,397.161 338.186,396.056 338.500,396.250 C 338.775,396.420 339,397.896 339,399.529 C 339,401.176 338.777,402.500 338.500,402.500 C 338.217,402.500 338,401.074 338,399.221" id="69"/>
  <path stroke-width="1" fill="#374D21" stroke="#374D21" d="M 338.240,379.500 C 338.464,374.794 340.798,358.529 341.324,358.017 C 341.695,357.654 341.116,362.543 339.959,369.555 C 339.432,372.748 338.978,376.798 338.950,378.555 C 338.923,380.312 338.700,382.312 338.457,383 C 338.168,383.817 338.092,382.603 338.240,379.500" id="69"/>
  <path stroke-width="1" fill="#1A441D" stroke="#1A441D" d="M 299.738,320.981 C 299.233,320.163 300.755,318.799 301.748,319.180 C 302.202,319.354 302.499,319.892 302.407,320.373 C 302.214,321.389 300.264,321.832 299.738,320.981" id="25"/>
  </g><g id="text 2"><path stroke-width="1" fill="#B98E3B" stroke="#B98E3B" d="M 561.756,826.947 C 549.885,825.697 538.202,819.547 533.415,812.027 C 531.061,808.328 531.380,806.894 535.443,802.919 C 542.438,796.076 545.728,795.048 550.251,798.293 C 553.526,800.641 557.596,802.693 560.966,803.694 C 564.078,804.618 571.748,804.773 574.639,803.970 C 577.239,803.248 579.870,800.803 580.573,798.453 C 582.244,792.875 578.097,789.609 564.500,785.790 C 548.990,781.435 540.716,776.090 536.837,767.917 C 534.698,763.410 533.998,760.175 534.008,754.851 C 534.023,746.317 536.505,740.332 542.447,734.500 C 553.730,723.427 570.127,720.274 586.720,725.989 C 594.831,728.782 604,736.159 604,739.891 C 604,741.892 602.174,744.288 598.595,746.986 C 591.697,752.184 589.278,752.606 584.134,749.503 C 578.494,746.101 575.951,745.344 570,745.294 C 565.112,745.253 564.586,745.346 562.374,746.646 C 556.563,750.062 556.506,757.410 562.265,760.785 C 563.463,761.487 569.125,763.519 574.846,765.299 C 592.970,770.939 599.931,775.411 604.278,784.208 C 606.018,787.729 606.229,788.581 606.415,792.830 C 606.670,798.670 605.919,802.720 603.739,807.250 C 600.547,813.882 594.990,819.261 587.750,822.727 C 582.427,825.276 578.855,826.289 572.750,826.981 C 567.765,827.547 567.448,827.545 561.756,826.947" id="77"/>
  <path stroke-width="1" fill="#B98E3B" stroke="#B98E3B" d="M 396.055,823.302 C 393.474,821.871 393.536,822.827 393.517,784.431 C 393.500,750.440 393.453,748.553 392.582,747.477 C 391.682,746.365 391.459,746.343 380.844,746.297 C 380.844,746.297 370.024,746.250 370.024,746.250 C 370.024,746.250 368.637,744.865 368.637,744.865 C 367.272,743.502 367.248,743.370 367.087,736.478 C 367.087,736.478 366.924,729.476 366.924,729.476 C 366.924,729.476 368.672,727.728 368.672,727.728 C 368.672,727.728 370.421,725.980 370.421,725.980 C 370.421,725.980 404.502,726.115 404.502,726.115 C 404.502,726.115 438.582,726.250 438.582,726.250 C 438.582,726.250 440.041,727.883 440.041,727.883 C 440.041,727.883 441.500,729.515 441.500,729.515 C 441.500,729.515 441.500,736.463 441.500,736.463 C 441.500,736.463 441.500,743.411 441.500,743.411 C 441.500,743.411 439.962,744.706 439.962,744.706 C 439.962,744.706 438.423,746 438.423,746 C 438.423,746 428.057,746 428.057,746 C 419.885,746 417.486,746.150 416.721,746.711 C 415.775,747.404 415.750,748.370 415.750,784.157 C 415.750,820.166 415.730,820.915 414.750,822.071 C 414.200,822.720 413.525,823.415 413.250,823.617 C 412.322,824.299 397.358,824.024 396.055,823.302" id="77"/>
  <path stroke-width="1" fill="#B98E3B" stroke="#B98E3B" d="M 240.106,823.957 C 239.115,823.659 238.073,822.823 237.483,821.856 C 236.530,820.293 236.504,819.058 236.505,776.250 C 236.505,748.663 236.690,731.583 237.002,730.463 C 237.275,729.480 238.079,728.130 238.789,727.463 C 238.789,727.463 240.079,726.250 240.079,726.250 C 240.079,726.250 260.165,726.106 260.165,726.106 C 287.302,725.912 292.138,726.617 300.031,731.924 C 308.491,737.612 312.540,746.745 311.104,756.900 C 310.801,759.040 310.103,761.844 309.551,763.130 C 308.325,765.990 305.167,769.496 301.923,771.598 C 300.591,772.462 299.500,773.208 299.500,773.258 C 299.500,773.308 301.233,774.204 303.351,775.251 C 309.860,778.468 313.805,783.471 315.264,790.360 C 316.656,796.929 315.934,803.189 313.147,808.715 C 311.104,812.766 305.351,818.062 300.423,820.429 C 293.021,823.984 291.770,824.121 265.250,824.297 C 250.692,824.394 241.125,824.264 240.106,823.957M 285.935,802.263 C 287.412,801.445 289.211,799.982 289.933,799.013 C 290.654,798.043 291.401,797.133 291.591,796.990 C 292.988,795.941 293.400,791.223 292.283,789.062 C 291.428,787.411 287.994,784.210 286.680,783.841 C 279.844,781.923 278.517,781.758 269.834,781.754 C 261.584,781.750 260.866,781.822 260.209,782.721 C 259.106,784.230 259.188,801.333 260.307,802.929 C 260.307,802.929 261.114,804.082 261.114,804.082 C 261.114,804.082 272.182,803.916 272.182,803.916 C 272.182,803.916 283.250,803.750 283.250,803.750 C 283.250,803.750 285.935,802.263 285.935,802.263M 280.252,764.501 C 286.461,762.730 288.250,760.662 288.250,755.260 C 288.250,751.915 288.115,751.427 286.721,749.703 C 285.880,748.664 284.642,747.405 283.971,746.905 C 281.870,745.341 276.357,744.518 267.928,744.509 C 261.252,744.501 260.062,744.616 259.803,745.291 C 259.637,745.726 259.500,750.095 259.500,755 C 259.500,759.905 259.637,764.274 259.803,764.709 C 260.299,766 275.543,765.846 280.252,764.501" id="77"/>
  <path stroke-width="1" fill="#B98E3B" stroke="#B98E3B" d="M 332,822.769 C 332,822.769 330.750,821.419 330.750,821.419 C 330.750,821.419 330.618,775.246 330.618,775.246 C 330.618,775.246 330.485,729.073 332.911,726.250 C 332.911,726.250 340.663,726.091 340.663,726.091 C 348.839,725.922 350.863,726.333 351.920,728.380 C 352.168,728.861 352.526,749.739 352.719,775.057 C 352.719,775.057 353.069,820.864 350.704,823.614 C 350.704,823.614 341.977,823.866 341.977,823.866 C 341.977,823.866 333.250,824.120 333.250,824.120 C 333.250,824.120 332,822.769 332,822.769" id="77"/>
  <path stroke-width="1" fill="#B98E3B" stroke="#B98E3B" d="M 459.560,824.039 C 458.630,823.798 457.180,822.910 456.337,822.068 C 456.337,822.068 454.805,820.536 454.805,820.536 C 454.805,820.536 454.630,775.393 454.630,775.393 C 454.489,738.908 454.580,730.010 455.110,729 C 455.469,728.312 456.548,727.357 457.507,726.876 C 459.104,726.075 461.596,726.001 487.337,726.001 C 487.337,726.001 515.423,726 515.423,726 C 515.423,726 516.962,727.294 516.962,727.294 C 516.962,727.294 518.500,728.589 518.500,728.589 C 518.500,728.589 518.500,735.833 518.500,735.833 C 518.500,735.833 518.500,743.077 518.500,743.077 C 518.500,743.077 517.038,744.538 517.038,744.538 C 517.038,744.538 515.577,746 515.577,746 C 515.577,746 497.616,746 497.616,746 C 480.851,746 479.600,746.061 478.827,746.914 C 478.128,747.688 478,749.103 478,756.064 C 478,761.803 478.182,764.482 478.600,764.900 C 479.040,765.340 483.229,765.500 494.332,765.500 C 494.332,765.500 509.464,765.500 509.464,765.500 C 509.464,765.500 510.732,767.366 510.732,767.366 C 511.926,769.124 512,769.605 512,775.639 C 512,781.774 511.948,782.097 510.772,783.273 C 510.772,783.273 509.546,784.500 509.546,784.500 C 509.546,784.500 494.600,784.500 494.600,784.500 C 480.757,784.500 479.594,784.567 478.827,785.414 C 478.127,786.189 478.002,787.586 478.016,794.539 C 478.027,800.229 478.219,802.981 478.641,803.500 C 479.163,804.142 481.911,804.250 497.771,804.250 C 514.622,804.250 516.413,804.330 517.639,805.132 C 520.332,806.895 520.750,808.171 520.750,814.641 C 520.750,814.641 520.750,820.577 520.750,820.577 C 520.750,820.577 518.883,822.288 518.883,822.288 C 518.883,822.288 517.014,824 517.014,824 C 517.014,824 507.839,824 507.839,824 C 502.793,824 490.246,824.107 479.957,824.239 C 469.668,824.370 460.490,824.280 459.560,824.039" id="77"/>
  <path stroke-width="1" fill="#B58838" stroke="#B58838" d="M 299.383,703.041 C 299.383,703.041 297.750,701.582 297.750,701.582 C 297.750,701.582 297.623,655.416 297.623,655.416 C 297.623,655.416 297.495,609.250 299.905,606.250 C 299.905,606.250 328.990,606.113 328.990,606.113 C 328.990,606.113 358.077,605.976 358.077,605.976 C 358.077,605.976 359.573,607.578 359.573,607.578 C 359.573,607.578 361.070,609.180 361.070,609.180 C 361.070,609.180 360.909,616.573 360.909,616.573 C 360.774,622.872 360.618,624.099 359.856,624.859 C 359.031,625.681 357.459,625.755 339.481,625.808 C 328.767,625.839 320.007,625.726 320.016,625.558 C 320.053,624.856 321.412,623.500 324.582,622.805 C 324.949,623.035 326.712,623.265 328.500,623.317 C 335.259,623.511 349.781,624.020 350.500,624.087 C 350.913,624.126 352.444,624.122 353.903,624.079 C 356.529,624.001 356.566,623.977 357.517,621.827 C 358.700,619.153 359.239,615.207 358.484,614.740 C 358.130,614.521 358.252,614.176 358.837,613.749 C 359.648,613.155 359.671,612.865 359.087,610.672 C 358.732,609.340 358.218,608.025 357.945,607.750 C 357.351,607.150 307.750,607.046 306.291,607.641 C 304.500,608.374 306.255,609.051 311.393,609.609 C 315.592,610.066 316.464,610.308 316.665,611.077 C 316.988,612.310 316.363,612.614 314.759,612.004 C 314.017,611.721 313.064,611.682 312.592,611.914 C 312.130,612.141 310.062,612.381 308,612.446 C 305.502,612.524 304,612.809 303.500,613.300 C 302.848,613.941 302.759,618.035 302.820,644.644 C 302.878,670.163 302.998,679.960 303.471,698.364 C 303.488,698.976 304.042,699.832 304.704,700.266 C 306.173,701.229 308.322,701.372 326.750,701.737 C 340.509,702.010 345.257,702.197 353.198,702.781 C 356.334,703.011 356.820,702.914 358.562,701.707 C 360.853,700.119 361.417,698.063 360.569,694.389 C 360.256,693.034 360,690.967 360,689.799 C 360,688.162 359.704,687.396 358.711,686.462 C 357.231,685.072 356.442,685.024 334.375,684.980 C 326.859,684.965 322,684.768 322,684.478 C 322,684.183 328.935,684.001 340.125,684.002 C 357.209,684.004 358.342,684.059 359.848,684.978 C 362.688,686.710 362.880,687.456 362.548,695.405 C 362.262,702.283 362.202,702.596 361,703.519 C 359.801,704.438 358.555,704.479 330.383,704.489 C 330.383,704.489 301.016,704.500 301.016,704.500 C 301.016,704.500 299.383,703.041 299.383,703.041" id="7"/>
  <path stroke-width="1" fill="#FAFAFA" stroke="#FAFAFA" d="M 259.803,764.709 C 259.637,764.274 259.500,759.905 259.500,755 C 259.500,750.095 259.637,745.726 259.803,745.291 C 260.062,744.616 261.252,744.501 267.928,744.509 C 276.357,744.518 281.870,745.341 283.971,746.905 C 284.642,747.405 285.880,748.664 286.721,749.703 C 288.115,751.427 288.250,751.915 288.250,755.260 C 288.250,760.662 286.461,762.730 280.252,764.501 C 275.543,765.846 260.299,766 259.803,764.709" id="17"/>
  <path stroke-width="1" fill="#FAFAFA" stroke="#FAFAFA" d="M 260.307,802.929 C 259.637,801.972 259.500,800.247 259.500,792.735 C 259.500,786.166 259.675,783.451 260.142,782.814 C 260.675,782.085 261.880,781.888 267.297,781.647 C 283.482,780.927 291.949,785.015 291.989,793.568 C 292.005,796.794 289.683,800.143 286,802.208 C 286,802.208 283.250,803.750 283.250,803.750 C 283.250,803.750 272.182,803.916 272.182,803.916 C 272.182,803.916 261.114,804.082 261.114,804.082 C 261.114,804.082 260.307,802.929 260.307,802.929" id="17"/>
  <path stroke-width="1" fill="#FAFAFA" stroke="#FAFAFA" d="M 512.098,650.793 C 512.098,650.793 510.882,649.835 510.882,649.835 C 510.882,649.835 511.085,638.949 511.085,638.949 C 511.324,626.123 511.257,626.298 516.153,625.788 C 519.852,625.402 527.710,626.163 531.405,627.264 C 537.930,629.211 541.136,635.218 539.481,642.397 C 537.897,649.261 533.471,651.281 519.282,651.611 C 514.030,651.733 513.168,651.635 512.098,650.793" id="17"/>
  <path stroke-width="1" fill="#F2EEE1" stroke="#F2EEE1" d="M 352.384,755.816 C 352.280,734.640 352.384,728.664 352.843,729.293 C 353.291,729.905 353.366,736.529 353.150,756.427 C 352.993,770.905 352.786,782.840 352.690,782.950 C 352.595,783.060 352.457,770.850 352.384,755.816" id="83"/>
  <path stroke-width="1" fill="#C19651" stroke="#C19651" d="M 291.868,794.250 C 292.130,790.254 290.700,787.385 287.318,785.125 C 284.861,783.482 284.912,782.904 287.400,784.207 C 288.949,785.019 291.617,787.737 292.440,789.342 C 293.177,790.779 293.116,793.874 292.313,795.750 C 291.714,797.154 291.685,797.057 291.868,794.250" id="78"/>
  <path stroke-width="1" fill="#FAFAFA" stroke="#FAFAFA" d="M 422.375,668.125 C 422.375,668.125 411,667.981 411,667.981 C 411,667.981 411,666.759 411,666.759 C 411,666.086 413.156,659.509 415.791,652.143 C 418.425,644.777 421.041,637.400 421.603,635.750 C 422.976,631.723 423.705,630.962 424.397,632.832 C 434.817,661.011 436.500,665.770 436.500,667.040 C 436.500,667.908 435.394,668.594 434.334,668.385 C 434.012,668.322 428.632,668.205 422.375,668.125" id="17"/>
</g><g id="banana flower"><path stroke-width="1" fill="#B7AE15" stroke="#B7AE15" d="M 379.517,301.945 C 379.505,300.259 379.854,299.118 380.820,297.695 C 384.020,292.983 388.716,284.707 390.236,281.104 C 393.781,272.697 394.922,264.938 395.431,245.766 C 395.431,245.766 395.750,233.750 395.750,233.750 C 395.750,233.750 414.875,233.619 414.875,233.619 C 414.875,233.619 434,233.488 434,233.488 C 434,233.488 434.002,238.119 434.002,238.119 C 434.009,250.803 435.459,264.398 437.789,273.635 C 439.892,281.966 441.301,284.802 447.536,293.250 C 452.126,299.469 454.353,304.125 452.375,303.368 C 450.741,302.743 446.433,301.452 443.500,300.708 C 441.712,300.255 440.135,299.702 439.993,299.479 C 439.582,298.829 429.649,296.972 424.850,296.647 C 420.818,296.374 420.323,296.442 416.220,297.472 C 415.177,296.493 414.502,296.353 410.888,296.368 C 405.428,296.392 395.358,298.099 389.750,299.950 C 387.275,300.767 384.358,301.597 383.269,301.793 C 382.180,301.990 380.893,302.623 380.411,303.200 C 379.549,304.231 379.533,304.209 379.517,301.945" id="12"/>
  <path stroke-width="1" fill="#FADE83" stroke="#FADE83" d="M 409.306,456.902 C 401.769,449.398 397.045,443.423 392.385,435.500 C 387.670,427.484 387.733,427.788 388.930,418.889 C 389.495,414.687 390.235,408.955 390.574,406.149 C 390.574,406.149 391.191,401.049 391.191,401.049 C 391.191,401.049 392.721,400.899 392.721,400.899 C 394.570,400.719 395.716,398.702 396.693,393.911 C 397.099,391.923 397.587,390.750 398.007,390.750 C 398.384,390.750 399.399,392.599 400.327,394.974 C 402.235,399.861 403.557,401.521 404.882,400.697 C 406.140,399.915 407.814,396.214 408.491,392.716 C 408.815,391.046 409.269,389.373 409.502,388.998 C 410.216,387.842 411.370,389.283 412.240,392.417 C 413.434,396.712 414.997,399.839 416.232,400.401 C 418.240,401.316 418.671,400.592 420.493,393.250 C 421.108,390.775 421.841,388.466 422.122,388.119 C 423,387.034 423.856,388.322 424.539,391.759 C 425.267,395.418 427.328,399.945 428.618,400.717 C 429.990,401.538 431.374,399.713 433.164,394.724 C 434.036,392.293 434.975,390.314 435.250,390.325 C 435.525,390.337 436.209,392.147 436.769,394.349 C 437.817,398.471 439.086,401 440.104,401 C 440.424,401 441.209,400.508 441.849,399.906 C 442.552,399.247 443.183,398.999 443.440,399.281 C 443.675,399.539 444.130,402.225 444.452,405.250 C 444.774,408.275 445.244,412.663 445.496,415 C 446.696,426.135 446.752,425.314 444.479,430 C 441.322,436.507 439.253,439.738 434.211,446.024 C 429.925,451.368 419.149,462.567 417.293,463.606 C 416.660,463.960 414.967,462.539 409.306,456.902" id="26"/>
  <path stroke-width="1" fill="#FAC200" stroke="#FAC200" d="M 391.234,400.406 C 391.358,400.046 392.041,395.025 392.750,389.250 C 395.579,366.230 398.502,352.200 404.363,333.505 C 404.363,333.505 406.792,325.760 406.792,325.760 C 406.792,325.760 408.771,325.409 408.771,325.409 C 413.468,324.575 428.449,325.170 428.752,326.202 C 428.840,326.503 430.050,330.575 431.440,335.250 C 432.831,339.925 434.640,346.562 435.461,350 C 437.151,357.082 440.646,375.611 441.496,382 C 441.808,384.337 442.454,389.207 442.933,392.822 C 443.539,397.392 443.634,399.328 443.245,399.179 C 442.938,399.061 442.272,399.423 441.766,399.983 C 439.788,402.168 438.341,400.527 436.756,394.300 C 436.189,392.072 435.510,390.250 435.248,390.250 C 434.985,390.250 434.051,392.251 433.174,394.697 C 431.375,399.712 429.992,401.538 428.618,400.717 C 427.328,399.945 425.267,395.418 424.539,391.759 C 423.856,388.322 423,387.034 422.122,388.119 C 421.841,388.466 421.108,390.775 420.493,393.250 C 418.671,400.592 418.240,401.316 416.232,400.401 C 414.997,399.839 413.434,396.712 412.240,392.417 C 411.370,389.283 410.216,387.842 409.502,388.998 C 409.269,389.373 408.815,391.046 408.491,392.716 C 407.814,396.214 406.140,399.915 404.882,400.697 C 403.557,401.521 402.235,399.861 400.327,394.974 C 399.399,392.599 398.384,390.750 398.007,390.750 C 397.587,390.750 397.099,391.923 396.693,393.911 C 395.697,398.793 394.579,400.719 392.628,400.906 C 391.462,401.019 391.071,400.879 391.234,400.406" id="13"/>
  <path stroke-width="1" fill="#E6A708" stroke="#E6A708" d="M 408.889,319.787 C 410.083,316.466 411.947,311.461 413.031,308.662 C 414.114,305.863 415.270,302.406 415.599,300.978 C 416.459,297.253 415.767,296.820 409.500,297.164 C 401.026,297.631 391.632,299.916 381.572,303.960 C 381.572,303.960 378.894,305.036 378.894,305.036 C 378.894,305.036 380.072,303.573 380.072,303.573 C 380.880,302.570 381.878,302.010 383.250,301.793 C 384.350,301.618 387.275,300.798 389.750,299.969 C 395.312,298.108 405.377,296.393 410.888,296.368 C 414.515,296.353 415.175,296.490 418.788,297.560 C 419.805,296.760 420.839,296.500 423.002,296.500 C 427.094,296.500 440,298.764 440,299.483 C 440,299.661 438.031,299.406 435.625,298.918 C 433.219,298.430 429.067,297.765 426.401,297.441 C 422.078,296.916 421.413,296.942 420.276,297.688 C 419.574,298.147 419,298.935 419,299.438 C 419,299.941 420.137,303.219 421.528,306.723 C 422.918,310.226 425.043,315.873 426.248,319.272 C 426.248,319.272 428.440,325.452 428.440,325.452 C 428.440,325.452 420.096,325.166 420.096,325.166 C 415.505,325.009 410.618,325.093 409.233,325.353 C 409.233,325.353 406.717,325.824 406.717,325.824 C 406.717,325.824 408.889,319.787 408.889,319.787" id="27"/>
  <path stroke-width="1" fill="#E6A708" stroke="#E6A708" d="M 449.250,302.968 C 447.325,302.183 446.123,301.531 446.580,301.520 C 447.786,301.491 453,303.562 453,304.070 C 453,304.307 452.944,304.476 452.875,304.448 C 452.806,304.420 451.175,303.753 449.250,302.968" id="27"/>
  </g><g id="text 1"><path stroke-width="1" fill="#B98E3B" stroke="#B98E3B" d="M 194.421,703.075 C 194.421,703.075 192.750,701.582 192.750,701.582 C 192.750,701.582 192.595,658.416 192.595,658.416 C 192.509,634.674 192.588,613.804 192.769,612.038 C 193.036,609.428 193.363,608.559 194.511,607.413 C 194.511,607.413 195.923,606 195.923,606 C 195.923,606 203.875,606 203.875,606 C 211.774,606 211.834,606.009 213.038,607.289 C 213.038,607.289 214.250,608.578 214.250,608.578 C 214.250,608.578 214.500,625.273 214.500,625.273 C 214.721,640.023 214.847,642.063 215.589,642.804 C 216.341,643.557 218.295,643.648 234.515,643.688 C 234.515,643.688 252.602,643.733 252.602,643.733 C 252.602,643.733 253.551,642.561 253.551,642.561 C 254.438,641.466 254.500,640.362 254.500,625.646 C 254.500,604.920 253.864,606 266.062,606 C 266.062,606 273.577,606 273.577,606 C 273.577,606 275.038,607.462 275.038,607.462 C 275.038,607.462 276.500,608.923 276.500,608.923 C 276.500,608.923 276.500,654.995 276.500,654.995 C 276.500,689.062 276.349,701.351 275.918,702.158 C 274.764,704.324 274.120,704.467 265.420,704.484 C 265.420,704.484 257.089,704.500 257.089,704.500 C 257.089,704.500 255.794,702.962 255.794,702.962 C 255.794,702.962 254.500,701.423 254.500,701.423 C 254.500,701.423 254.500,684.267 254.500,684.267 C 254.500,668.115 254.444,667.042 253.543,665.931 C 253.543,665.931 252.587,664.750 252.587,664.750 C 252.587,664.750 234.418,664.927 234.418,664.927 C 218.876,665.077 216.124,665.215 215.375,665.879 C 214.582,666.582 214.497,667.989 214.469,680.952 C 214.434,697.483 214.096,702.117 212.839,703.376 C 212.097,704.119 210.780,704.274 204.029,704.409 C 204.029,704.409 196.091,704.567 196.091,704.567 C 196.091,704.567 194.421,703.075 194.421,703.075" id="77"/>
  <path stroke-width="1" fill="#B98E3B" stroke="#B98E3B" d="M 543.613,704.072 C 540.433,702.401 537.688,698.991 532.019,689.672 C 524.045,676.561 521.247,672.355 520,671.597 C 518.144,670.471 514.205,670.251 512.765,671.193 C 512.765,671.193 511.500,672.023 511.500,672.023 C 511.500,672.023 511.500,687.261 511.500,687.261 C 511.500,701.833 511.456,702.544 510.500,703.500 C 509.570,704.430 508.834,704.500 499.978,704.500 C 490.690,704.500 490.426,704.471 489.297,703.342 C 489.297,703.342 488.139,702.185 488.139,702.185 C 488.139,702.185 487.916,659.217 487.916,659.217 C 487.793,635.586 487.820,614.622 487.976,612.632 C 488.216,609.552 488.464,608.808 489.642,607.632 C 489.642,607.632 491.024,606.250 491.024,606.250 C 491.024,606.250 512.637,606.250 512.637,606.250 C 535.537,606.250 537.581,606.410 544.591,608.759 C 548.606,610.104 554.319,613.795 556.713,616.592 C 559.064,619.339 562.220,625.530 563.292,629.500 C 564.486,633.923 564.486,643.073 563.293,647.500 C 561.325,654.794 556.909,660.319 549.587,664.651 C 547.354,665.971 545.403,667.253 545.251,667.497 C 544.899,668.067 547.653,672.542 553.408,680.750 C 565.097,697.422 566.113,699.060 565.784,700.707 C 565.615,701.556 564.975,702.730 564.363,703.317 C 563.337,704.301 562.553,704.404 554.250,704.658 C 546.361,704.898 545.048,704.826 543.613,704.072M 528.750,650.966 C 535.114,650.045 538.304,647.497 539.481,642.397 C 541.136,635.218 537.930,629.211 531.405,627.264 C 527.710,626.163 519.852,625.402 516.153,625.788 C 511.257,626.298 511.324,626.123 511.085,638.949 C 511.085,638.949 510.882,649.835 510.882,649.835 C 510.882,649.835 512.098,650.793 512.098,650.793 C 513.168,651.635 514.030,651.733 519.282,651.611 C 522.564,651.534 526.825,651.245 528.750,650.966" id="77"/>
  <path stroke-width="1" fill="#B98E3B" stroke="#B98E3B" d="M 603.128,702.798 C 603.128,702.798 601.269,701.095 601.269,701.095 C 601.269,701.095 601.082,664.173 601.082,664.173 C 600.960,640.172 600.716,627.031 600.386,626.625 C 600.010,626.162 597.231,626 589.664,626 C 578.528,626 577.479,625.785 575.707,623.150 C 574.928,621.992 574.764,620.800 574.758,616.250 C 574.750,610.207 575.535,607.894 578.028,606.634 C 578.962,606.160 587.115,606.013 612.650,606.008 C 648.837,606 647.855,605.928 649.676,608.707 C 650.331,609.707 650.500,611.255 650.500,616.265 C 650.500,619.731 650.268,622.999 649.985,623.528 C 648.824,625.696 647.144,626 636.327,626 C 636.327,626 626.104,626 626.104,626 C 626.104,626 624.520,627.804 624.520,627.804 C 624.520,627.804 622.936,629.607 622.936,629.607 C 622.936,629.607 623.236,666.263 623.236,666.263 C 623.236,666.263 623.536,702.918 623.536,702.918 C 623.536,702.918 622.407,703.709 622.407,703.709 C 621.490,704.352 619.751,704.500 613.131,704.500 C 613.131,704.500 604.986,704.500 604.986,704.500 C 604.986,704.500 603.128,702.798 603.128,702.798" id="77"/>
  <path stroke-width="1" fill="#B98E3B" stroke="#B98E3B" d="M 378.500,703.500 C 376.786,701.787 377.214,699.149 380.721,689.820 C 382.493,685.106 384.716,679.112 385.661,676.500 C 386.606,673.888 391.241,661.062 395.962,648 C 406.024,620.162 408.537,613.679 410.644,610.135 C 413.023,606.135 413.914,605.869 424.279,606.077 C 424.279,606.077 432.952,606.250 432.952,606.250 C 432.952,606.250 434.946,608.197 434.946,608.197 C 437.130,610.331 439.748,616.136 449.396,640.250 C 452.147,647.125 456.762,658.487 459.651,665.500 C 473.925,700.146 474.248,701.154 471.843,703.413 C 470.750,704.439 470.220,704.500 462.351,704.500 C 462.351,704.500 454.016,704.500 454.016,704.500 C 454.016,704.500 452.505,703.125 452.505,703.125 C 451.538,702.245 449.816,699.143 447.724,694.514 C 445.925,690.534 444.092,686.878 443.649,686.389 C 442.906,685.567 441.443,685.500 424.480,685.500 C 424.480,685.500 406.115,685.500 406.115,685.500 C 406.115,685.500 405.380,686.625 405.380,686.625 C 404.976,687.244 403.796,689.888 402.757,692.500 C 400.109,699.158 398.208,702.798 396.899,703.714 C 395.990,704.351 394.229,704.500 387.639,704.500 C 380.166,704.500 379.418,704.418 378.500,703.500M 435.709,668.197 C 437.284,667.592 437.503,668.279 424.397,632.832 C 423.705,630.962 422.976,631.723 421.603,635.750 C 421.041,637.400 418.425,644.777 415.791,652.143 C 413.156,659.509 411,666.086 411,666.759 C 411,666.759 411,667.981 411,667.981 C 411,667.981 422.375,668.125 422.375,668.125 C 428.632,668.205 434.012,668.322 434.334,668.385 C 434.656,668.448 435.274,668.364 435.709,668.197" id="77"/>
  <path stroke-width="1" fill="#FDFCF0" stroke="#FDFCF0" d="M 276.459,630.149 C 276.329,616.707 276.428,608.726 276.719,609.019 C 277.280,609.580 277.484,635.292 277.004,644.977 C 276.755,650.003 276.615,646.177 276.459,630.149" id="79"/>
  <path stroke-width="1" fill="#B98E3B" stroke="#B98E3B" d="M 352.877,702.733 C 352.607,702.510 338.663,701.989 326,701.730 C 308.412,701.370 306.151,701.215 304.712,700.271 C 304.045,699.835 303.488,698.976 303.471,698.364 C 302.998,679.960 302.878,670.163 302.820,644.644 C 302.759,618.035 302.848,613.941 303.500,613.300 C 304,612.809 305.502,612.524 308,612.446 C 310.062,612.381 312.130,612.141 312.592,611.914 C 313.064,611.682 314.017,611.721 314.759,612.004 C 316.363,612.614 316.988,612.310 316.665,611.077 C 316.464,610.308 315.592,610.066 311.393,609.609 C 306.255,609.051 304.500,608.374 306.291,607.641 C 307.750,607.046 357.351,607.150 357.945,607.750 C 358.218,608.025 358.732,609.340 359.087,610.672 C 359.671,612.865 359.648,613.155 358.837,613.749 C 358.252,614.176 358.130,614.521 358.484,614.740 C 359.239,615.207 358.700,619.153 357.517,621.827 C 356.566,623.977 356.529,624.001 353.903,624.079 C 352.444,624.122 350.913,624.126 350.500,624.087 C 349.781,624.020 335.259,623.511 328.500,623.317 C 326.712,623.265 324.949,623.035 322.080,623.500 C 321.402,623.500 320.051,624.861 320.016,625.578 C 320.736,625.991 323.193,624.999 321.250,626.481 C 320.330,627.527 320.255,628.273 320.321,635.818 C 320.370,641.478 320.583,644.247 321.007,644.759 C 321.526,645.384 323.967,645.500 336.509,645.500 C 336.509,645.500 351.394,645.500 351.394,645.500 C 351.394,645.500 352.985,646.986 352.985,646.986 C 352.985,646.986 354.576,648.472 354.576,648.472 C 354.576,648.472 354.413,655.447 354.413,655.447 C 354.259,662.029 354.182,662.495 353.038,663.711 C 353.038,663.711 351.825,665 351.825,665 C 351.825,665 336.949,665 336.949,665 C 320.863,665 320.897,664.995 320.211,667.727 C 320.051,668.364 319.995,671.892 320.085,675.567 C 320.226,681.309 320.391,682.439 321.250,683.593 C 321.250,683.593 322.250,684.936 322.250,684.936 C 322.250,684.936 334.500,684.971 334.500,684.971 C 356.535,685.032 357.234,685.074 358.711,686.462 C 359.704,687.396 360,688.162 360,689.799 C 360,690.967 360.256,693.034 360.569,694.389 C 361.411,698.040 360.851,700.121 358.603,701.679 C 357.320,702.568 356.140,702.956 354.866,702.908 C 353.842,702.870 352.947,702.791 352.877,702.733" id="77"/>
  <path stroke-width="1" fill="#F2EEE1" stroke="#F2EEE1" d="M 194.371,704.458 C 193.888,704.177 193.041,703.061 192.488,701.978 C 191.501,700.043 191.487,699.222 191.617,654.538 C 191.617,654.538 191.750,609.066 191.750,609.066 C 191.750,609.066 193.219,607.533 193.219,607.533 C 194.026,606.689 194.965,606 195.305,606 C 195.645,606 195.287,606.635 194.511,607.413 C 193.363,608.559 193.036,609.428 192.769,612.038 C 192.588,613.804 192.509,634.674 192.595,658.416 C 192.595,658.416 192.750,701.582 192.750,701.582 C 192.750,701.582 194.421,703.075 194.421,703.075 C 194.421,703.075 196.091,704.567 196.091,704.567 C 196.091,704.567 204.091,704.409 204.091,704.409 C 211.803,704.256 212.125,704.207 212.888,704.221 C 211.989,704.851 210.202,704.997 203.513,704.985 C 198.815,704.976 194.871,704.749 194.371,704.458" id="83"/>
  <path stroke-width="1" fill="#B98E3B" stroke="#B98E3B" d="M 362.689,695.500 C 362.689,692.337 362.771,691.044 362.870,692.625 C 362.969,694.206 362.969,696.794 362.870,698.375 C 362.771,699.956 362.689,698.663 362.689,695.500" id="77"/>
  </g><g id="heart shape 1"><path stroke-width="1" fill="#C52B2B" stroke="#C52B2B" d="M 413.983,560.176 C 409.109,555.771 402.152,543.779 394.909,527.295 C 392.647,522.148 385.305,501.390 383.575,495.250 C 382.748,492.317 380.158,483.762 378.919,479.875 C 378.327,478.019 377.704,476.500 377.534,476.500 C 377.365,476.500 375.795,480.156 374.046,484.625 C 372.298,489.094 369.933,494.663 368.791,497 C 362.850,509.158 353.243,519.567 352.291,514.875 C 352.166,514.256 351.940,509.137 351.791,503.500 C 351.361,487.339 349.426,468.785 346.498,452.750 C 345.432,446.906 342.378,428.933 341.531,423.500 C 341.017,420.214 340.546,416.550 339.406,407 C 339.045,403.966 338.794,396.262 338.813,388.750 C 338.841,377.719 339.012,374.803 339.939,369.500 C 343.419,349.606 348.176,336.340 355.846,325.137 C 357.943,322.074 365.557,314.301 368.142,312.585 C 368.751,312.180 369.925,311.231 370.750,310.476 C 374.533,307.012 384.202,302.385 392.500,300.069 C 401.185,297.644 412.810,296.327 415.033,297.517 C 416.733,298.427 416.673,298.652 409.772,317.500 C 404.824,331.015 399.415,349.452 397.303,360 C 395.148,370.768 394.633,374.349 389.964,411 C 389.140,417.462 388.334,423.586 388.172,424.608 C 387.805,426.928 388.692,429.223 392.385,435.500 C 397.045,443.423 401.769,449.398 409.306,456.902 C 414.967,462.539 416.660,463.960 417.293,463.606 C 419.149,462.567 429.925,451.368 434.211,446.024 C 439.253,439.738 441.322,436.507 444.479,430 C 446.428,425.983 446.524,425.572 446.245,422.500 C 445.240,411.468 442.911,391.906 441.033,378.714 C 440.212,372.954 437.062,356.727 435.459,350 C 432.478,337.492 426.613,319.358 421.157,305.772 C 419.947,302.760 419.023,299.843 419.103,299.289 C 419.184,298.736 419.841,297.953 420.563,297.549 C 421.726,296.898 422.598,296.915 428.221,297.697 C 446.824,300.284 460.308,306.488 472.170,317.918 C 477.048,322.618 482.982,332.289 488.174,344 C 489.695,347.430 491.941,354.839 493.176,360.500 C 496.158,374.161 496.249,375.118 496.247,392.750 C 496.246,403.676 496.025,410.770 495.593,413.750 C 491.864,439.476 491.156,444.025 489.995,449.750 C 489.493,452.225 488.604,457.512 488.019,461.500 C 487.435,465.488 486.745,470.100 486.486,471.750 C 485.216,479.839 484.043,496.752 484.019,507.291 C 484.009,511.990 483.859,515.974 483.687,516.146 C 482.430,517.404 475.031,510.221 470.373,503.222 C 466.487,497.384 464.148,492.532 460.436,482.611 C 457.545,474.884 456.738,474.061 455.676,477.755 C 455.361,478.852 454.382,482.337 453.501,485.500 C 448.139,504.758 436.816,534.589 430.536,546 C 425.680,554.826 419.593,562 416.962,562 C 416.435,562 415.094,561.179 413.983,560.176" id="82"/>
  <path stroke-width="1" fill="#374D21" stroke="#374D21" d="M 350,485.971 C 350,484.745 350.198,484.063 350.500,484.250 C 350.775,484.420 351,485.333 351,486.279 C 351,487.226 350.775,488 350.500,488 C 350.225,488 350,487.087 350,485.971" id="69"/>
  </g></svg>